<svg width="906" height="663" viewBox="0 0 906 663" fill="none" xmlns="http://www.w3.org/2000/svg">
<mask id="path-1-inside-1" fill="white">
<path fill-rule="evenodd" clip-rule="evenodd" d="M788.537 74.989C797.084 60.3728 812.945 50.5544 831.099 50.5544C849.253 50.5544 865.113 60.3728 873.66 74.989C865.113 89.6052 849.253 99.4236 831.099 99.4236C812.945 99.4236 797.084 89.6052 788.537 74.989Z"/>
</mask>
<path d="M788.537 74.989L788.105 74.7366L787.958 74.989L788.105 75.2414L788.537 74.989ZM873.66 74.989L874.092 75.2414L874.239 74.989L874.092 74.7366L873.66 74.989ZM788.969 75.2414C797.43 60.7722 813.13 51.0544 831.099 51.0544V50.0544C812.76 50.0544 796.738 59.9734 788.105 74.7366L788.969 75.2414ZM831.099 51.0544C849.068 51.0544 864.768 60.7722 873.229 75.2414L874.092 74.7366C865.459 59.9734 849.437 50.0544 831.099 50.0544V51.0544ZM873.229 74.7366C864.768 89.2058 849.068 98.9236 831.099 98.9236V99.9236C849.437 99.9236 865.459 90.0046 874.092 75.2414L873.229 74.7366ZM831.099 98.9236C813.13 98.9236 797.43 89.2058 788.969 74.7366L788.105 75.2414C796.738 90.0046 812.76 99.9236 831.099 99.9236V98.9236Z" fill="white" mask="url(#path-1-inside-1)"/>
<path fill-rule="evenodd" clip-rule="evenodd" d="M831.097 57.6372C836.741 61.1218 840.531 67.5882 840.531 74.9896C840.531 82.3909 836.741 88.8573 831.097 92.3419C825.454 88.8573 821.664 82.3909 821.664 74.9896C821.664 67.5882 825.454 61.1218 831.097 57.6372Z" fill="white"/>
<path fill-rule="evenodd" clip-rule="evenodd" d="M831.098 50.5646C831.265 50.5646 831.432 50.5654 831.598 50.5671V0.449707H831.098V50.5646ZM834.254 50.664C834.42 50.6745 834.587 50.6859 834.753 50.6981L839.934 10.5977L839.439 10.5336L834.254 50.664ZM837.532 50.9808C837.699 51.0026 837.865 51.0252 838.031 51.0486L850.874 3.11946L850.391 2.99005L837.532 50.9808ZM840.771 51.5138C840.938 51.5469 841.104 51.5809 841.27 51.6158L856.302 15.0769L855.84 14.8866L840.771 51.5138ZM844.189 52.3227C844.355 52.3683 844.521 52.4148 844.686 52.4621L868.805 10.6868L868.372 10.4368L844.189 52.3227ZM847.606 53.3981C847.771 53.4567 847.935 53.5161 848.099 53.5763L870.956 23.64L870.558 23.3365L847.606 53.3981ZM851.24 54.8564C851.402 54.9293 851.564 55.003 851.726 55.0775L884.165 22.6382L883.812 22.2846L851.24 54.8564ZM854.879 56.6731C855.037 56.7607 855.195 56.8492 855.353 56.9385L882.889 35.7042L882.583 35.3083L854.879 56.6731ZM858.275 58.7312C858.429 58.8337 858.584 58.9372 858.737 59.0414L895.659 37.7244L895.409 37.2914L858.275 58.7312ZM861.736 61.247C861.885 61.3651 862.033 61.484 862.18 61.6038L890.888 49.6317L890.695 49.1702L861.736 61.247ZM866.056 65.1144C866.19 65.2503 866.325 65.3869 866.458 65.5242L903.106 55.7043L902.977 55.2214L866.056 65.1144ZM869.78 69.3155C869.9 69.467 870.019 69.6192 870.136 69.7721L895.536 66.366L895.47 65.8704L869.78 69.3155ZM873.66 74.9991C873.562 75.1664 873.463 75.3331 873.363 75.4992H905.648V74.9992L873.66 74.9991ZM870.607 79.6066C870.492 79.7604 870.376 79.9135 870.26 80.0659L895.578 83.3372L895.642 82.8414L870.607 79.6066ZM866.853 84.0623C866.722 84.2003 866.59 84.3375 866.458 84.474L903.106 94.294L903.236 93.811L866.853 84.0623ZM862.666 87.9935C862.521 88.1146 862.376 88.2349 862.229 88.3543L891.031 100.203L891.221 99.741L862.666 87.9935ZM859.194 90.6431C859.042 90.7485 858.89 90.8531 858.737 90.9569L895.659 112.274L895.909 111.841L859.194 90.6431ZM855.478 92.9885C855.321 93.0783 855.163 93.1674 855.004 93.2555L882.774 114.458L883.078 114.061L855.478 92.9885ZM851.725 94.9211C851.564 94.9956 851.402 95.0693 851.239 95.1422L883.81 127.713L884.164 127.36L851.725 94.9211ZM848.215 96.379C848.051 96.4397 847.887 96.4996 847.722 96.5586L870.802 126.487L871.197 126.181L848.215 96.379ZM844.687 97.536C844.521 97.5833 844.356 97.6298 844.19 97.6754L868.372 139.56L868.805 139.31L844.687 97.536ZM841.388 98.3576C841.222 98.3929 841.056 98.4273 840.889 98.4609L856.13 135.008L856.592 134.815L841.388 98.3576ZM838.031 98.9498C837.864 98.9732 837.698 98.9958 837.531 99.0175L850.39 147.008L850.873 146.878L838.031 98.9498ZM834.866 99.2917C834.7 99.3043 834.533 99.3161 834.366 99.327L839.746 139.439L840.241 139.373L834.866 99.2917ZM831.598 99.4312C831.432 99.4329 831.265 99.4337 831.098 99.4337V149.549H831.598V99.4312ZM828.465 99.3645C828.298 99.3557 828.131 99.3461 827.965 99.3357L822.778 139.48L823.274 139.544L828.465 99.3645ZM825.161 99.0797C824.994 99.0596 824.827 99.0387 824.661 99.0169L811.801 147.009L812.284 147.138L825.161 99.0797ZM821.947 98.5854C821.779 98.554 821.613 98.5217 821.446 98.4886L806.373 135.127L806.835 135.317L821.947 98.5854ZM818.505 97.8095C818.338 97.7655 818.171 97.7207 818.005 97.675L793.823 139.56L794.256 139.81L818.505 97.8095ZM815.111 96.7819C814.945 96.725 814.779 96.6672 814.614 96.6086L791.656 126.677L792.054 126.981L815.111 96.7819ZM811.445 95.358C811.282 95.2867 811.118 95.2144 810.955 95.1413L778.383 127.713L778.736 128.067L811.445 95.358ZM807.816 93.5967C807.656 93.5105 807.496 93.4234 807.336 93.3355L779.624 114.706L779.929 115.102L807.816 93.5967ZM803.459 90.9566C803.306 90.8528 803.154 90.7482 803.002 90.6428L766.286 111.841L766.536 112.274L803.459 90.9566ZM799.321 87.818C799.179 87.6975 799.037 87.5761 798.895 87.454L770.694 99.2149L770.886 99.6763L799.321 87.818ZM795.738 84.4736C795.605 84.3371 795.474 84.1999 795.343 84.0618L758.958 93.811L759.088 94.294L795.738 84.4736ZM792.071 80.2407C791.954 80.0889 791.838 79.9363 791.722 79.7831L766.605 83.1512L766.672 83.6468L792.071 80.2407ZM788.833 75.4991C788.733 75.3331 788.634 75.1664 788.537 74.9991L756.549 74.9991V75.4991H788.833ZM791.927 69.9449C792.045 69.7914 792.163 69.6386 792.282 69.4865L766.696 66.1807L766.632 66.6766L791.927 69.9449ZM795.738 65.5247L759.088 55.7043L759.217 55.2214L796.14 65.1149C796.005 65.2507 795.871 65.3873 795.738 65.5247ZM799.088 62.3783L770.79 50.7366L770.981 50.2742L799.518 62.0146C799.374 62.135 799.231 62.2562 799.088 62.3783ZM828.342 50.6404C828.175 50.6496 828.008 50.6596 827.842 50.6705L822.465 10.5746L822.96 10.5081L828.342 50.6404ZM825.161 50.9187L812.283 2.85986L811.8 2.98927L824.66 50.9814C824.826 50.9597 824.993 50.9388 825.161 50.9187ZM821.82 51.4368L806.547 14.8139L806.086 15.0064L821.319 51.535C821.486 51.5014 821.653 51.4687 821.82 51.4368ZM818.505 52.1886L794.256 10.1868L793.823 10.4368L818.006 52.3231C818.172 52.2774 818.338 52.2326 818.505 52.1886ZM814.968 53.2656L791.799 23.2217L791.403 23.527L814.471 53.4406C814.637 53.3814 814.802 53.3231 814.968 53.2656ZM811.445 54.6405L778.735 21.9311L778.382 22.2846L810.954 54.8573C811.117 54.7842 811.281 54.7119 811.445 54.6405ZM807.666 56.4828L779.737 35.159L779.434 35.5564L807.186 56.7459C807.346 56.6574 807.505 56.5697 807.666 56.4828ZM803.921 58.7315L766.786 37.2914L766.536 37.7244L803.459 59.0417C803.612 58.9375 803.766 58.834 803.921 58.7315Z" fill="white"/>
</svg>
