<svg width="33" height="26" viewBox="0 0 33 26" fill="none" xmlns="http://www.w3.org/2000/svg">
<path fill-rule="evenodd" clip-rule="evenodd" d="M29.7941 7.76896L23.5652 0.923774C22.3326 -0.30877 20.3248 -0.310388 19.0807 0.933722C18.6864 1.32798 18.4181 1.80012 18.2789 2.30378C17.0398 1.35453 15.2522 1.44895 14.1108 2.5904C13.7182 2.98466 13.4498 3.45679 13.3073 3.95878C12.0682 3.01285 10.2806 3.10557 9.14089 4.24702C8.75486 4.63303 8.48983 5.09354 8.34569 5.58393L5.41011 2.64835C4.17757 1.41581 2.16974 1.41416 0.925632 2.65827C-0.308544 3.89081 -0.308544 5.89866 0.925632 7.13282L12.204 18.4112L5.51448 19.4615C3.70707 19.7199 2.34368 21.2904 2.34368 23.1177C2.34368 24.4877 3.45858 25.6026 4.82863 25.6026H20.4491C22.8827 25.6026 25.1705 24.655 26.8917 22.9338L29.4975 20.3279C31.2171 18.61 32.163 16.3238 32.163 13.8935C32.163 11.6239 31.3215 9.4488 29.7941 7.76896ZM28.3263 19.1567L25.7204 21.7625C24.3123 23.1706 22.4403 23.9459 20.449 23.9459H4.82856C4.37133 23.9459 4.00022 23.5748 4.00022 23.1176C4.00022 22.1103 4.75231 21.2439 5.76119 21.0998L13.9761 19.809L14.414 18.2788L2.09682 5.96155C1.50873 5.37348 1.50873 4.41593 2.10512 3.81791C2.39998 3.52466 2.786 3.3772 3.17203 3.3772C3.55805 3.3772 3.94399 3.52466 4.23893 3.81953L12.5271 12.1077C12.5606 12.1412 12.5964 12.1713 12.6338 12.1979L13.6087 13.1626L14.7809 11.9779L13.0039 10.2195L12.9927 10.2308L10.3122 7.5503C9.72416 6.96223 9.72416 6.00629 10.3222 5.40827C10.9086 4.82181 11.8678 4.82181 12.4543 5.40827L15.8404 8.79441C15.8662 8.8202 15.8933 8.84394 15.9215 8.86561L17.0111 9.94382L18.1833 8.75919L16.4063 7.00074L16.3978 7.00928L15.2821 5.89362C14.694 5.30552 14.694 4.34959 15.2921 3.75159C15.8785 3.16514 16.8377 3.16514 17.4242 3.75159L18.0177 4.34513L17.9948 4.36835L20.0831 6.43482L21.2553 5.25019L20.4234 4.42698C20.3948 4.38508 20.3619 4.34522 20.3247 4.30805L20.2535 4.23685C19.9686 3.95194 19.8112 3.57252 19.8112 3.16996C19.8112 2.76737 19.9669 2.38965 20.2618 2.09482C20.8516 1.50837 21.8058 1.50999 22.3674 2.06663L28.5699 8.8837C29.8172 10.2572 30.5064 12.0364 30.5064 13.8935C30.5064 15.8815 29.7327 17.7502 28.3263 19.1567Z" fill="white"/>
</svg>
